FFmpeg version SVN-r25716, Copyright (c) 2000-2010 the FFmpeg developers  built on Nov 10 2010 12:23:18 with gcc 4.1.2 20080704 (Red Hat 4.1.2-48)  configuration: --enable-libmp3lame --enable-shared --disable-mmx --arch=x86_64  libavutil     50.33. 0 / 50.33. 0  libavcore      0.12. 1 /  0.12. 1  libavcodec    52.94. 4 / 52.94. 4  libavformat   52.84. 0 / 52.84. 0  libavdevice   52. 2. 2 / 52. 2. 2  libavfilter    1.59. 0 /  1.59. 0  libswscale     0.12. 0 /  0.12. 0Input #0, avi, from '/RAID10/data/converted_video_files/47587.avi':  Duration: 00:00:02.33, start: 0.000000, bitrate: 281286 kb/s    Stream #0.0: Video: msvideo1, rgb555le, 1024x1024, 30 tbr, 30 tbn, 30 tbc[buffer @ 0x1eea4490] w:1024 h:1024 pixfmt:rgb555le[ffsink @ 0x1eed1d10] auto-inserting filter 'auto-inserted scaler 0' between the filter 'src' and the filter 'out'[scale @ 0x1eed2000] w:1024 h:1024 fmt:rgb555le -> w:1024 h:1024 fmt:yuv420p flags:0x4Output #0, flv, to '/RAID10/data/converted_video_files/47587.flv':  Metadata:    encoder         : Lavf52.84.0    Stream #0.0: Video: flv, yuv420p, 1024x1024, q=2-31, 600 kb/s, 1k tbn, 24 tbcStream mapping:  Stream #0.0 -> #0.0Press [q] to stop encodingframe=    8 fps=  0 q=10.9 size=     310kB time=0.33 bitrate=7616.6kbits/s dup=0 drop=1    frame=   16 fps= 14 q=27.8 size=     349kB time=0.67 bitrate=4285.0kbits/s dup=0 drop=3    frame=   25 fps= 15 q=24.4 size=     389kB time=1.04 bitrate=3057.8kbits/s dup=0 drop=6    frame=   35 fps= 16 q=28.2 size=     402kB time=1.46 bitrate=2257.4kbits/s dup=0 drop=8    frame=   45 fps= 16 q=28.2 size=     438kB time=1.88 bitrate=1915.0kbits/s dup=0 drop=11    frame=   54 fps= 16 q=31.0 size=     477kB time=2.25 bitrate=1737.4kbits/s dup=0 drop=13    frame=   56 fps= 16 q=28.8 Lsize=     479kB time=2.33 bitrate=1682.2kbits/s dup=0 drop=14    video:478kB audio:0kB global headers:0kB muxing overhead 0.225962%